<svg width="100" height="17" viewBox="0 0 100 17" fill="none" xmlns="http://www.w3.org/2000/svg">
<path d="M8.54102 0.351978C8.57695 0.241421 8.73336 0.241421 8.76928 0.351979L10.4805 5.61842C10.4965 5.66787 10.5426 5.70134 10.5946 5.70134H16.132C16.2483 5.70134 16.2966 5.8501 16.2026 5.91842L11.7227 9.17327C11.6806 9.20382 11.663 9.25799 11.6791 9.30743L13.3903 14.5739C13.4262 14.6844 13.2996 14.7764 13.2056 14.708L8.72569 11.4532C8.68363 11.4226 8.62668 11.4226 8.58462 11.4532L4.10471 14.708C4.01067 14.7764 3.88413 14.6844 3.92005 14.5739L5.63122 9.30743C5.64729 9.25799 5.62969 9.20382 5.58763 9.17327L1.10772 5.91842C1.01368 5.8501 1.06201 5.70134 1.17826 5.70134H6.71573C6.76771 5.70134 6.81379 5.66787 6.82985 5.61842L8.54102 0.351978Z" fill="#FFBA0E"/>
<path d="M29.166 0.351978C29.2019 0.241421 29.3583 0.241421 29.3942 0.351979L31.1054 5.61842C31.1215 5.66787 31.1676 5.70134 31.2195 5.70134H36.757C36.8733 5.70134 36.9216 5.8501 36.8275 5.91842L32.3476 9.17327C32.3056 9.20382 32.288 9.25799 32.3041 9.30743L34.0152 14.5739C34.0511 14.6844 33.9246 14.7764 33.8306 14.708L29.3507 11.4532C29.3086 11.4226 29.2516 11.4226 29.2096 11.4532L24.7297 14.708C24.6356 14.7764 24.5091 14.6844 24.545 14.5739L26.2562 9.30743C26.2723 9.25799 26.2547 9.20382 26.2126 9.17327L21.7327 5.91842C21.6386 5.8501 21.687 5.70134 21.8032 5.70134H27.3407C27.3927 5.70134 27.4388 5.66787 27.4548 5.61842L29.166 0.351978Z" fill="#FFBA0E"/>
<path d="M49.791 0.351978C49.8269 0.241421 49.9834 0.241421 50.0193 0.351979L51.7305 5.61842C51.7465 5.66787 51.7926 5.70134 51.8446 5.70134H57.382C57.4983 5.70134 57.5466 5.8501 57.4526 5.91842L52.9727 9.17327C52.9306 9.20382 52.913 9.25799 52.9291 9.30743L54.6403 14.5739C54.6762 14.6844 54.5496 14.7764 54.4556 14.708L49.9757 11.4532C49.9336 11.4226 49.8767 11.4226 49.8346 11.4532L45.3547 14.708C45.2607 14.7764 45.1341 14.6844 45.17 14.5739L46.8812 9.30743C46.8973 9.25799 46.8797 9.20382 46.8376 9.17327L42.3577 5.91842C42.2637 5.8501 42.312 5.70134 42.4283 5.70134H47.9657C48.0177 5.70134 48.0638 5.66787 48.0799 5.61842L49.791 0.351978Z" fill="#FFBA0E"/>
<path d="M70.416 0.351978C70.4519 0.241421 70.6084 0.241421 70.6443 0.351979L72.3555 5.61842C72.3715 5.66787 72.4176 5.70134 72.4696 5.70134H78.007C78.1233 5.70134 78.1716 5.8501 78.0776 5.91842L73.5977 9.17327C73.5556 9.20382 73.538 9.25799 73.5541 9.30743L75.2653 14.5739C75.3012 14.6844 75.1746 14.7764 75.0806 14.708L70.6007 11.4532C70.5586 11.4226 70.5017 11.4226 70.4596 11.4532L65.9797 14.708C65.8857 14.7764 65.7591 14.6844 65.795 14.5739L67.5062 9.30743C67.5223 9.25799 67.5047 9.20382 67.4626 9.17327L62.9827 5.91842C62.8887 5.8501 62.937 5.70134 63.0533 5.70134H68.5907C68.6427 5.70134 68.6888 5.66787 68.7049 5.61842L70.416 0.351978Z" fill="#FFBA0E"/>
<path d="M91.041 0.351978C91.0769 0.241421 91.2334 0.241421 91.2693 0.351979L92.9805 5.61842C92.9965 5.66787 93.0426 5.70134 93.0946 5.70134H98.632C98.7483 5.70134 98.7966 5.8501 98.7026 5.91842L94.2227 9.17327C94.1806 9.20382 94.163 9.25799 94.1791 9.30743L95.8903 14.5739C95.9262 14.6844 95.7996 14.7764 95.7056 14.708L91.2257 11.4532C91.1836 11.4226 91.1267 11.4226 91.0846 11.4532L86.6047 14.708C86.5107 14.7764 86.3841 14.6844 86.42 14.5739L88.1312 9.30743C88.1473 9.25799 88.1297 9.20382 88.0876 9.17327L83.6077 5.91842C83.5137 5.8501 83.562 5.70134 83.6783 5.70134H89.2157C89.2677 5.70134 89.3138 5.66787 89.3299 5.61842L91.041 0.351978Z" fill="#FFBA0E"/>
</svg>
